<svg width="1366" height="35" viewBox="0 0 1366 35" fill="none" xmlns="http://www.w3.org/2000/svg">
<path d="M1366 0V21.6147C1360.09 20.9207 1354.41 19.9292 1348.26 19.6317C1344.94 19.4334 1342.34 19.0368 1339.74 18.2436C1335.24 16.8555 1330.51 15.9632 1324.36 16.6572C1317.5 17.4504 1311.59 18.9377 1303.78 18.9377C1295.03 18.9377 1285.8 19.9292 1277.05 20.8215C1272.32 21.3173 1268.29 20.9207 1264.03 19.9292C1257.65 18.4419 1251.02 18.4419 1243.69 19.0368C1233.99 19.83 1224.05 21.813 1214.12 19.3343C1212.46 18.9377 1209.86 18.9377 1207.97 19.2351C1202.52 20.0283 1197.08 19.83 1191.64 20.0283C1183.84 20.3258 1176.03 21.0198 1167.98 20.5241C1165.86 20.4249 1162.07 20.7224 1161.36 21.3173C1157.1 24.5892 1150.24 25.085 1142.43 25.3824C1139.6 25.4816 1136.99 25.6799 1134.86 24.8867C1133.21 24.2918 1131.31 24.0935 1129.19 24.0935C1123.74 23.9943 1118.3 23.6969 1112.86 23.5977C1108.37 23.4986 1104.34 23.9943 1101.27 25.5807C1099.85 26.3739 1097.96 26.5722 1095.83 26.7705C1090.86 27.1671 1086.13 26.6714 1081.87 25.5807C1078.79 24.8867 1076.19 24.8867 1072.88 24.9858C1065.07 25.3824 1057.03 25.4816 1049.22 25.8782C1043.78 26.1756 1038.58 25.085 1033.37 25.2833C1024.15 25.6799 1015.16 25.6799 1006.17 24.5892C998.358 23.6969 989.368 24.2918 982.271 22.1105C981.561 21.9122 980.615 22.1105 979.905 22.1105C976.356 22.3088 972.808 22.5071 969.259 21.813C967.603 21.4164 965.474 21.7139 964.528 22.3088C961.452 24.1926 957.903 23.796 954.118 22.8045C952.699 22.4079 951.279 22.6062 949.623 22.5071C938.977 22.3088 928.094 23.3003 917.448 21.9122C910.824 21.0198 903.727 22.1105 897.103 21.0198C895.92 20.8215 894.5 21.2181 893.081 21.2181C889.296 21.4164 887.403 23.2011 884.328 23.2011C873.682 23.3994 863.272 23.6969 853.809 25.9773C852.863 26.1756 851.443 26.1756 850.26 26.0765C844.346 25.4816 838.668 26.2748 832.99 26.8697C827.076 27.3654 821.161 28.0595 815.247 27.6629C811.462 27.3654 808.623 26.5722 804.128 26.9688C795.611 27.8612 786.858 28.4561 778.814 30.0425C775.265 30.7365 771.953 30.9348 768.405 30.8357C766.985 30.8357 765.802 30.8357 764.383 30.9348C756.103 31.5297 747.822 33.017 739.069 32.2238C737.176 32.0255 735.757 32.6204 734.101 32.8187C728.896 33.5127 723.455 34.5042 717.777 33.5127C713.992 32.9178 710.443 32.7195 706.421 32.6204C691.517 32.4221 677.559 30.5382 664.074 28.0595C660.525 27.4646 657.686 27.4646 654.374 27.8612C650.116 28.3569 646.33 29.3484 642.072 29.5467C635.448 29.8442 628.824 29.4476 622.436 28.4561C620.78 28.1586 618.414 27.6629 616.995 28.2578C612.027 30.0425 607.532 29.051 602.8 28.2578C597.122 27.1671 591.918 27.762 587.423 29.745C585.767 30.5382 583.637 30.9348 581.035 30.9348C572.991 31.1331 565.184 31.8272 558.323 33.711C556.194 34.2068 553.829 35.1983 550.753 34.7026C542.946 33.5127 533.956 34.2068 526.385 32.4221C521.891 31.3314 518.105 31.2323 512.664 32.3229C504.147 34.1076 494.921 33.5127 486.167 31.5297C481.199 30.3399 476.468 28.5552 469.843 29.8442C469.607 29.9433 468.897 29.745 468.424 29.6459C463.929 28.2578 458.015 27.8612 453.52 26.3739C444.056 23.102 433.174 22.0113 421.108 23.6969C420.162 23.796 418.979 23.6969 418.033 23.6969C409.279 23.102 399.816 23.796 391.3 22.3088C390.826 22.2096 389.88 22.3088 389.407 22.4079C387.278 23.2011 384.912 22.9037 382.546 22.8045C377.815 22.7054 373.32 22.5071 368.588 22.4079C361.254 22.2096 355.576 24.0935 349.189 25.085C345.877 25.5807 342.565 26.1756 339.252 25.6799C330.263 24.4901 321.509 23.2011 312.756 21.6147C308.971 20.9207 304.949 21.4164 301.163 20.6232C290.991 18.4419 279.871 17.847 268.279 18.3428C261.182 18.6402 253.848 19.2351 246.751 17.847C243.675 17.2521 239.653 16.7564 236.105 16.9547C228.061 17.4504 220.254 17.9462 212.21 18.0453C205.586 18.1445 198.962 19.5326 192.338 18.0453C189.026 17.3513 185.95 18.0453 183.111 18.7394C174.594 20.6232 166.078 22.2096 155.905 21.813C151.41 21.7139 147.388 21.2181 143.13 20.7224C140.291 20.4249 137.215 20.2266 135.796 21.5156C133.903 23.2011 130.827 23.3003 127.515 23.3003C123.494 23.3003 119.472 23.2011 115.45 23.3003C108.826 23.5977 102.675 23.5977 96.2871 22.6062C91.5556 21.813 86.824 20.6232 81.6193 21.0198C78.3072 21.2181 74.9951 21.0198 71.9196 20.6232C65.0589 19.83 57.4884 19.3343 51.3374 20.4249C37.8524 23.0028 23.1846 22.9037 9.69969 24.5892C6.3876 24.9858 3.07551 24.7875 0 24.5892V0H1366Z" fill="white"/>
</svg>
